<svg xmlns="http://www.w3.org/2000/svg" viewBox="0 0 512 512">
  <!-- Maskable: full background fill (safe zone = center 80%) -->
  <rect width="512" height="512" fill="#1a3a5c"/>
  <!-- Document body -->
  <rect x="130" y="110" width="252" height="316" rx="14" fill="#ffffff" opacity="0.95"/>
  <!-- Document fold corner -->
  <polygon points="310,110 382,182 310,182" fill="#1a3a5c" opacity="0.12"/>
  <!-- Title bar -->
  <rect x="156" y="148" width="118" height="14" rx="7" fill="#1a3a5c" opacity="0.8"/>
  <!-- Lines -->
  <rect x="156" y="182" width="196" height="10" rx="5" fill="#1a3a5c" opacity="0.22"/>
  <rect x="156" y="204" width="170" height="10" rx="5" fill="#1a3a5c" opacity="0.22"/>
  <rect x="156" y="226" width="182" height="10" rx="5" fill="#1a3a5c" opacity="0.22"/>
  <!-- Divider -->
  <rect x="156" y="256" width="196" height="1.5" fill="#dde2ea"/>
  <!-- Approval stamps -->
  <rect x="156" y="272" width="52" height="52" rx="5" fill="#f0f2f5" stroke="#dde2ea" stroke-width="1.5"/>
  <rect x="222" y="272" width="52" height="52" rx="5" fill="#f0f2f5" stroke="#dde2ea" stroke-width="1.5"/>
  <rect x="288" y="272" width="52" height="52" rx="5" fill="#f0f2f5" stroke="#dde2ea" stroke-width="1.5"/>
  <!-- Check badge -->
  <circle cx="356" cy="356" r="78" fill="#c8973a"/>
  <path d="M320 356 L344 380 L392 328" stroke="#ffffff" stroke-width="14" fill="none" stroke-linecap="round" stroke-linejoin="round"/>
</svg>
